<?xml version="1.0" encoding="UTF-8" standalone="no"?>
<svg
   id="logo-26"
   width="138"
   height="36"
   viewBox="0 0 138 36"
   fill="none"
   version="1.1"
   sodipodi:docname="logoipsum-236.svg"
   xml:space="preserve"
   inkscape:export-filename="logo-onlytasks-v1.svg"
   inkscape:export-xdpi="96"
   inkscape:export-ydpi="96"
   xmlns:inkscape="http://www.inkscape.org/namespaces/inkscape"
   xmlns:sodipodi="http://sodipodi.sourceforge.net/DTD/sodipodi-0.dtd"
   xmlns="http://www.w3.org/2000/svg"
   xmlns:svg="http://www.w3.org/2000/svg"><defs
     id="defs242"><rect
       x="43.377193"
       y="8.4736843"
       width="93.614037"
       height="19.368422"
       id="rect508" /></defs><sodipodi:namedview
     id="namedview240"
     pagecolor="#ffffff"
     bordercolor="#000000"
     borderopacity="0.25"
     inkscape:showpageshadow="2"
     inkscape:pageopacity="0.0"
     inkscape:pagecheckerboard="0"
     inkscape:deskcolor="#d1d1d1"
     showgrid="false" /><g
     id="g6367"
     transform="matrix(0.09225465,0,0,0.09225465,1.9165167,-5.1013615)"><g
       id="board_checklist-1-68">
		<path
   class="st0_checklist-1-68 targetColor"
   d="m 125.5,116.2 h 227.3 c 6.7,0 12.1,5.4 12.1,12.1 v 281.8 c 0,6.7 -5.4,12.1 -12.1,12.1 H 125.5 c -6.7,0 -12.1,-5.4 -12.1,-12.1 V 128.3 c 0.1,-6.7 5.5,-12.1 12.1,-12.1 z"
   style="fill:#10a09e"
   id="path6281" />
		<path
   class="st1_checklist-1-68"
   d="M 353.1,424 H 125.3 c -7.6,0 -13.7,-6.1 -13.7,-13.7 V 128.1 c 0,-7.6 6.1,-13.7 13.7,-13.7 H 353 c 7.6,0 13.7,6.1 13.7,13.7 v 282.2 c 0.1,7.5 -6.1,13.7 -13.6,13.7 z M 125.3,118.1 c -5.5,0 -10,4.5 -10,10 v 282.2 c 0,5.5 4.5,10 10,10 H 353 c 5.5,0 10,-4.5 10,-10 V 128.1 c 0,-5.5 -4.5,-10 -10,-10 z"
   id="path6283"
   style="fill:#107e8b;fill-opacity:1" />
		<rect
   x="134.8"
   y="131.60001"
   class="st2_checklist-1-68"
   width="208.8"
   height="271.5"
   id="rect6285" />
		<path
   class="st1_checklist-1-68"
   d="M 343.6,404.9 H 134.8 c -1,0 -1.8,-0.8 -1.8,-1.8 0,0 0,0 0,0 V 131.6 c 0,-1 0.8,-1.8 1.8,-1.8 h 208.8 c 1,0 1.8,0.8 1.8,1.8 v 271.5 c 0,1 -0.8,1.8 -1.8,1.8 0,0 0,0 0,0 z m -207,-3.7 H 341.7 V 133.5 H 136.6 Z"
   id="path6287" />
		<path
   class="st3_checklist-1-68"
   d="m 197.9,221.6 h -33.1 c -1,0 -1.8,-0.8 -1.8,-1.8 v -28.9 c 0,-1 0.8,-1.8 1.8,-1.8 h 33.1 c 1,0 1.8,0.8 1.8,1.8 0,0 0,0 0,0 v 28.9 c 0,1 -0.8,1.8 -1.8,1.8 z M 166.6,218 H 196 v -25.3 h -29.4 z"
   id="path6289" />
		<path
   class="st3_checklist-1-68"
   d="m 250.7,199.8 h 59.8 c 1.8,0 3.2,1.4 3.2,3.2 v 5.3 c 0,1.8 -1.4,3.2 -3.2,3.2 h -59.8 c -1.8,0 -3.2,-1.4 -3.2,-3.2 V 203 c 0,-1.7 1.4,-3.2 3.2,-3.2 z"
   id="path6291" />
		<path
   class="st3_checklist-1-68"
   d="m 197.9,295.4 h -33.1 c -1,0 -1.8,-0.8 -1.8,-1.8 v -28.9 c 0,-1 0.8,-1.8 1.8,-1.8 h 33.1 c 1,0 1.8,0.8 1.8,1.8 v 28.9 c 0,0.9 -0.8,1.8 -1.8,1.8 z m -31.3,-3.7 H 196 v -25.3 h -29.4 z"
   id="path6293" />
		<path
   class="st3_checklist-1-68"
   d="m 250.7,273.5 h 59.8 c 1.8,0 3.2,1.4 3.2,3.2 v 5.3 c 0,1.8 -1.4,3.2 -3.2,3.2 h -59.8 c -1.8,0 -3.2,-1.4 -3.2,-3.2 v -5.3 c 0,-1.7 1.4,-3.2 3.2,-3.2 z"
   id="path6295" />
		<path
   class="st3_checklist-1-68"
   d="m 197.9,369.1 h -33.1 c -1,0 -1.8,-0.8 -1.8,-1.8 v -28.9 c 0,-1 0.8,-1.8 1.8,-1.8 h 33.1 c 1,0 1.8,0.8 1.8,1.8 0,0 0,0 0,0 v 28.9 c 0,1 -0.8,1.8 -1.8,1.8 0,0 0,0 0,0 z m -31.3,-3.7 H 196 v -25.3 h -29.4 z"
   id="path6297" />
		<path
   class="st3_checklist-1-68"
   d="m 250.7,347.3 h 59.8 c 1.8,0 3.2,1.4 3.2,3.2 v 5.3 c 0,1.8 -1.4,3.2 -3.2,3.2 h -59.8 c -1.8,0 -3.2,-1.4 -3.2,-3.2 v -5.3 c 0,-1.8 1.4,-3.2 3.2,-3.2 z"
   id="path6299" />
		<path
   class="st0_checklist-1-68 targetColor"
   d="m 303.6,100.9 h -41.2 c 0,-12.4 -10.1,-22.5 -22.5,-22.5 -12.4,0 -22.5,10.1 -22.5,22.5 h -42.7 c -3,0 -5.5,2.5 -5.5,5.5 0,0 0,0 0,0 v 31 c 0,10.3 8.3,18.6 18.6,18.6 h 102.7 c 10.3,0 18.6,-8.3 18.6,-18.6 v -31 c 0,-3 -2.4,-5.5 -5.5,-5.5 z m -63.6,-9 c 5,0 9,4 9.1,9 v 0.1 c -0.2,5 -4.4,8.9 -9.4,8.8 -4.8,-0.2 -8.6,-4 -8.8,-8.8 v -0.1 c 0,-5 4.1,-9 9.1,-9 z"
   style="fill:#10a09e"
   id="path6301" />
		<path
   class="st1_checklist-1-68"
   d="M 290.5,157.9 H 187.9 c -11.3,0 -20.4,-9.2 -20.4,-20.4 v -31 c 0,-4.1 3.3,-7.4 7.4,-7.3 h 41 C 217,85.8 228.7,75.8 242,76.9 c 11.9,0.9 21.4,10.4 22.3,22.3 h 39.4 c 4.1,0 7.4,3.3 7.4,7.3 v 31 c -0.1,11.2 -9.3,20.4 -20.6,20.4 0,0 0,0 0,0 z M 174.8,102.8 c -2,0 -3.7,1.6 -3.7,3.7 v 31 c 0,9.3 7.5,16.7 16.8,16.8 h 102.7 c 9.3,0 16.7,-7.5 16.8,-16.8 v -31 c 0,-2 -1.7,-3.7 -3.7,-3.7 h -41.2 c -1,0 -1.8,-0.8 -1.8,-1.8 0,-11.4 -9.2,-20.6 -20.6,-20.6 -11.4,0 -20.6,9.2 -20.6,20.6 0,1 -0.8,1.8 -1.8,1.8 v 0 z m 65.2,9.1 c -6,0 -10.9,-4.9 -10.9,-10.9 0,-6 4.9,-10.9 10.9,-10.9 6,0 10.8,4.8 10.9,10.8 0,6 -4.8,10.9 -10.9,11 0,0 0,0 0,0 z m 0,-18.1 c -4,0 -7.2,3.2 -7.2,7.2 0,4 3.2,7.2 7.2,7.2 4,0 7.2,-3.2 7.2,-7.2 v 0 c 0,-4 -3.2,-7.2 -7.2,-7.2 z"
   id="path6303"
   style="fill:#107e8b;fill-opacity:1" />
	</g><g
       id="check-mark-2_checklist-1-68">
		<polygon
   class="st4_checklist-1-68"
   points="158.8,269.2 185,295.2 224.4,257.6 214.9,248.1 185,276.6 168.3,260.2 "
   id="polygon6306" />
		<path
   class="st1_checklist-1-68"
   d="m 185,297 c -0.5,0 -0.9,-0.2 -1.3,-0.5 l -26.2,-25.9 c -0.7,-0.7 -0.7,-1.9 0,-2.6 0,0 0,0 0,0 l 9.5,-9.1 c 0.7,-0.7 1.8,-0.7 2.6,0 L 185,274 213.6,246.7 c 0.7,-0.7 1.9,-0.7 2.6,0 l 9.5,9.5 c 0.7,0.7 0.7,1.9 0,2.6 0,0 0,0 0,0 l -39.4,37.6 c -0.3,0.4 -0.8,0.6 -1.3,0.6 z m -23.6,-27.7 23.6,23.3 36.8,-35 -6.9,-6.9 -28.7,27.3 c -0.7,0.7 -1.8,0.7 -2.6,0 l -15.4,-15.2 z"
   id="path6308" />
	</g><g
       id="check-mark-1_checklist-1-68">
		<polygon
   class="st4_checklist-1-68"
   points="158.8,195.2 185,221.1 224.4,183.6 214.9,174.1 185,202.6 168.3,186.2 "
   id="polygon6311" />
		<path
   class="st1_checklist-1-68"
   d="m 185,223 c -0.5,0 -0.9,-0.2 -1.3,-0.5 l -26.2,-25.9 c -0.4,-0.3 -0.5,-0.8 -0.5,-1.3 0,-0.5 0.2,-1 0.6,-1.3 l 9.5,-9.1 c 0.7,-0.7 1.8,-0.7 2.6,0 L 185,200 213.6,172.7 c 0.7,-0.7 1.9,-0.7 2.6,0 l 9.5,9.5 c 0.7,0.7 0.7,1.9 0,2.6 0,0 0,0 0,0 l -39.4,37.6 c -0.3,0.4 -0.8,0.6 -1.3,0.6 z m -23.6,-27.7 23.6,23.3 36.8,-35 -6.9,-6.9 -28.6,27.2 c -0.7,0.7 -1.8,0.7 -2.6,0 l -15.4,-15.2 z"
   id="path6313" />
	</g><g
       id="pen_checklist-1-68">
		<path
   class="st4_checklist-1-68"
   d="m 297.2,305.8 c -15.8,12.3 -32.5,23.3 -50,33.1 -17.5,9.6 -30.1,14.3 -36.9,16.4 l -2.7,-3.5 c 3.8,-6 11.6,-17 25.4,-31.4 13.9,-14.4 28.9,-27.7 44.9,-39.7 25.8,-19.8 64.1,-50.6 86.1,-66.5 3.4,-2.5 8.1,-1.8 10.7,1.5 l 10.2,13.3 c 2.5,3.3 2,8.1 -1.3,10.7 -21,17.2 -60.6,46.3 -86.4,66.1 z"
   id="path6316" />
		<path
   class="st1_checklist-1-68"
   d="m 210.4,357.1 c -0.6,0 -1.1,-0.3 -1.4,-0.7 l -2.7,-3.5 c -0.5,-0.6 -0.5,-1.4 -0.1,-2.1 4.2,-6.6 12.1,-17.5 25.6,-31.6 14,-14.4 29.1,-27.8 45.1,-39.9 9.3,-7.1 20,-15.5 31.3,-24.4 20,-15.7 40.7,-31.9 54.9,-42.1 4.2,-3.1 10.1,-2.2 13.2,1.9 l 10.2,13.4 c 3.2,4.1 2.5,10 -1.6,13.3 -13.6,11 -34.6,26.9 -55,42.2 -11.5,8.6 -22.3,16.8 -31.6,23.9 v 0 c -15.9,12.3 -32.7,23.4 -50.2,33.2 -17.1,9.4 -29.7,14.2 -37.2,16.5 -0.2,-0.1 -0.4,-0.1 -0.5,-0.1 z m -0.5,-5.4 1.1,1.4 c 6.4,-2.1 18.6,-6.7 35.3,-15.9 17.4,-9.7 34,-20.7 49.7,-32.9 v 0 c 9.3,-7.1 20.1,-15.3 31.6,-23.9 20.4,-15.3 41.4,-31.1 54.9,-42.1 2.5,-2 3,-5.6 1,-8.2 l -10.2,-13.3 c -1.9,-2.5 -5.6,-3.1 -8.1,-1.2 -14.1,10.2 -34.8,26.4 -54.7,42.1 -11.4,8.9 -22.1,17.2 -31.4,24.4 -15.9,12 -30.8,25.3 -44.7,39.5 -13.2,13.8 -20.8,24.5 -24.5,30.1 z"
   id="path6318" />
		<path
   class="st1_checklist-1-68"
   d="m 364,214.2 c 0,0 -8.2,-5.1 -17,-2.1 -8.8,3 -62.6,48.1 -62.6,48.1 0,0 6.3,3.6 11.5,0.4 5.2,-3.2 3.4,-7.6 3.4,-7.6 0,0 37,-29.1 41.1,-30.6 4.1,-1.5 8.1,3.5 8.1,3.5 z"
   id="path6320" />
		<path
   class="st1_checklist-1-68"
   d="m 291,263.7 c -2.6,-0.1 -5.2,-0.7 -7.5,-2 -0.9,-0.5 -1.2,-1.6 -0.7,-2.5 0.1,-0.2 0.3,-0.4 0.4,-0.5 5.5,-4.6 54.3,-45.4 63.2,-48.4 9.5,-3.2 18.2,2 18.6,2.2 0.9,0.6 1.1,1.7 0.5,2.6 -0.1,0.2 -0.2,0.3 -0.4,0.4 l -15.5,11.7 c -0.8,0.6 -1.9,0.4 -2.5,-0.3 0,0 -3.2,-3.9 -6,-2.9 -2.8,1 -25.4,18.4 -39.6,29.6 0.3,2.3 -0.4,5.9 -4.5,8.4 -1.9,1.2 -3.9,1.8 -6,1.7 z m -3,-4.1 c 2.3,0.8 4.9,0.5 7,-0.6 3.6,-2.2 2.8,-5.1 2.7,-5.4 -0.3,-0.7 0,-1.6 0.6,-2.1 6.2,-4.9 37.4,-29.4 41.6,-30.9 3.7,-1.4 7.1,1.1 8.9,2.8 l 11.8,-8.8 c -4.1,-1.7 -8.7,-2 -12.9,-0.7 -6.8,2.2 -43.4,32.1 -59.7,45.7 z"
   id="path6322" />
		<path
   class="st2_checklist-1-68"
   d="m 247.2,338.9 c -17.5,9.6 -30.1,14.3 -36.8,16.4 l -2.7,-3.5 c 3.8,-6 11.6,-17 25.4,-31.4 z"
   id="path6324" />
		<path
   class="st1_checklist-1-68"
   d="m 210.4,357.1 c -0.6,0 -1.1,-0.3 -1.4,-0.7 l -2.7,-3.5 c -0.5,-0.6 -0.5,-1.4 -0.1,-2.1 4.2,-6.6 12.1,-17.5 25.6,-31.6 0.4,-0.4 0.9,-0.6 1.4,-0.6 0.5,0 1,0.3 1.4,0.7 l 14.2,18.5 c 0.3,0.4 0.5,1 0.3,1.5 -0.1,0.5 -0.4,1 -0.9,1.2 -17.1,9.4 -29.7,14.2 -37.2,16.5 -0.3,0.1 -0.5,0.1 -0.6,0.1 z m -0.5,-5.4 1.1,1.4 c 6.2,-2 17.7,-6.4 33.4,-14.8 l -11.6,-15 c -12.1,12.9 -19.3,23 -22.9,28.4 z"
   id="path6326" />
		<path
   class="st1_checklist-1-68"
   d="m 208,352.2 2.1,2.7 v 0 l -5.9,4.5 c -0.3,0.3 -0.8,0.2 -1.1,-0.1 v 0 l -1.1,-1.5 c -0.3,-0.3 -0.2,-0.8 0.1,-1.1 v 0 z"
   id="path6328" />
		<path
   class="st1_checklist-1-68"
   d="m 203.8,361.2 c -0.1,0 -0.3,0 -0.4,0 -0.9,-0.1 -1.7,-0.6 -2.2,-1.3 l -0.3,-0.4 c -1.1,-1.4 -0.8,-3.5 0.6,-4.6 l 5.4,-4.1 c 0.4,-0.3 0.9,-0.4 1.4,-0.4 0.5,0.1 0.9,0.3 1.2,0.7 l 2.1,2.7 c 0.6,0.8 0.5,2 -0.3,2.6 l -5.4,4.1 c -0.6,0.4 -1.3,0.7 -2.1,0.7 z"
   id="path6330" />
	</g></g><text
     xml:space="preserve"
     id="text506"
     style="font-style:normal;font-variant:normal;font-weight:bold;font-stretch:normal;font-size:16px;font-family:'Book Antiqua';-inkscape-font-specification:'Book Antiqua Bold';text-align:justify;letter-spacing:-0.421889px;white-space:pre;shape-inside:url(#rect508);fill:#cbfbef;fill-opacity:0.988235;stroke:none;stroke-width:0;stroke-dasharray:none"
     x="40.949219"
     y="0"
     transform="matrix(1.185147,0,0,1.185147,-7.4154396,-2.1203726)"><tspan
       x="43.376953"
       y="23.000603"
       id="tspan12189"><tspan
         style="font-family:'Century Gothic';-inkscape-font-specification:'Century Gothic Bold';fill:#10a19e"
         id="tspan12185">Only</tspan><tspan
         style="fill:#107e8b"
         id="tspan12187">Tasks</tspan></tspan></text><style
     type="text/css"
     id="style6279">
		.st0_checklist-1-68 {
			fill: #68E1FD;
		}

		.st1_checklist-1-68 {
			fill: #093F68;
		}

		.st2_checklist-1-68 {
			fill: #f0f0f0;
		}

		.st3_checklist-1-68 {
			fill: #d1dce0;
		}

		.st4_checklist-1-68 {
			fill: #F96D6F;
		}
	</style></svg>
