<svg version="1.1" id="Layer_1" xmlns="http://www.w3.org/2000/svg" xmlns:xlink="http://www.w3.org/1999/xlink" x="0px"
	y="0px" viewBox="0 0 500 500" style="width: 188px;" xml:space="preserve" data-imageid="checklist-1-68"
	imageName="Checklist 1" class="illustrations_image">
	<style type="text/css">
		.st00_checklist-1-68 {
			fill: #10a09e;
		}

		.st0_checklist-1-68 {
			fill: #68E1FD;
		}

		.st1_checklist-1-68 {
			fill: #107E8B;
		}

		.st2_checklist-1-68 {
			fill: #f0f0f0;
		}

		.st3_checklist-1-68 {
			fill: #d1dce0;
		}

		.st4_checklist-1-68 {
			fill: #F96D6F;
		}
	</style>
	<g id="board_checklist-1-68">
		<path class="st0_checklist-1-68 targetColor"
			d="M125.5,116.2h227.3c6.7,0,12.1,5.4,12.1,12.1v281.8c0,6.7-5.4,12.1-12.1,12.1H125.5c-6.7,0-12.1-5.4-12.1-12.1&#10;&#9;&#9;V128.3C113.5,121.6,118.9,116.2,125.5,116.2z"
			style="fill: #10a09e;" />
		<path class="st1_checklist-1-68"
			d="M353.1,424H125.3c-7.6,0-13.7-6.1-13.7-13.7V128.1c0-7.6,6.1-13.7,13.7-13.7h227.7c7.6,0,13.7,6.1,13.7,13.7&#10;&#9;&#9;v282.2C366.8,417.8,360.6,424,353.1,424z M125.3,118.1c-5.5,0-10,4.5-10,10v282.2c0,5.5,4.5,10,10,10h227.7c5.5,0,10-4.5,10-10&#10;&#9;&#9;V128.1c0-5.5-4.5-10-10-10L125.3,118.1z" />
		<rect x="134.8" y="131.6" class="st2_checklist-1-68" width="208.8" height="271.5" />
		<path class="st1_checklist-1-68"
			d="M343.6,404.9H134.8c-1,0-1.8-0.8-1.8-1.8c0,0,0,0,0,0V131.6c0-1,0.8-1.8,1.8-1.8h208.8c1,0,1.8,0.8,1.8,1.8&#10;&#9;&#9;v271.5C345.4,404.1,344.6,404.9,343.6,404.9C343.6,404.9,343.6,404.9,343.6,404.9z M136.6,401.2h205.1V133.5H136.6V401.2z" />
		<path class="st3_checklist-1-68"
			d="M197.9,221.6h-33.1c-1,0-1.8-0.8-1.8-1.8v-28.9c0-1,0.8-1.8,1.8-1.8h33.1c1,0,1.8,0.8,1.8,1.8c0,0,0,0,0,0&#10;&#9;&#9;v28.9C199.7,220.8,198.9,221.6,197.9,221.6z M166.6,218H196v-25.3h-29.4V218z" />
		<path class="st3_checklist-1-68"
			d="M250.7,199.8h59.8c1.8,0,3.2,1.4,3.2,3.2v5.3c0,1.8-1.4,3.2-3.2,3.2h-59.8c-1.8,0-3.2-1.4-3.2-3.2V203&#10;&#9;&#9;C247.5,201.3,248.9,199.8,250.7,199.8z" />
		<path class="st3_checklist-1-68"
			d="M197.9,295.4h-33.1c-1,0-1.8-0.8-1.8-1.8v-28.9c0-1,0.8-1.8,1.8-1.8h33.1c1,0,1.8,0.8,1.8,1.8v28.9&#10;&#9;&#9;C199.7,294.5,198.9,295.4,197.9,295.4z M166.6,291.7H196v-25.3h-29.4V291.7z" />
		<path class="st3_checklist-1-68"
			d="M250.7,273.5h59.8c1.8,0,3.2,1.4,3.2,3.2v5.3c0,1.8-1.4,3.2-3.2,3.2h-59.8c-1.8,0-3.2-1.4-3.2-3.2v-5.3&#10;&#9;&#9;C247.5,275,248.9,273.5,250.7,273.5z" />
		<path class="st3_checklist-1-68"
			d="M197.9,369.1h-33.1c-1,0-1.8-0.8-1.8-1.8v-28.9c0-1,0.8-1.8,1.8-1.8h33.1c1,0,1.8,0.8,1.8,1.8c0,0,0,0,0,0&#10;&#9;&#9;v28.9C199.7,368.3,198.9,369.1,197.9,369.1C197.9,369.1,197.9,369.1,197.9,369.1z M166.6,365.4H196v-25.3h-29.4V365.4z" />
		<path class="st3_checklist-1-68"
			d="M250.7,347.3h59.8c1.8,0,3.2,1.4,3.2,3.2v5.3c0,1.8-1.4,3.2-3.2,3.2h-59.8c-1.8,0-3.2-1.4-3.2-3.2v-5.3&#10;&#9;&#9;C247.5,348.7,248.9,347.3,250.7,347.3z" />
		<path class="st0_checklist-1-68 targetColor"
			d="M303.6,100.9h-41.2c0-12.4-10.1-22.5-22.5-22.5s-22.5,10.1-22.5,22.5h-42.7c-3,0-5.5,2.5-5.5,5.5c0,0,0,0,0,0&#10;&#9;&#9;v31c0,10.3,8.3,18.6,18.6,18.6h102.7c10.3,0,18.6-8.3,18.6-18.6v-31C309.1,103.4,306.7,100.9,303.6,100.9z M240,91.9c5,0,9,4,9.1,9&#10;&#9;&#9;v0.1c-0.2,5-4.4,8.9-9.4,8.8c-4.8-0.2-8.6-4-8.8-8.8v-0.1C230.9,95.9,235,91.9,240,91.9L240,91.9z"
			style="fill: #10a09e;" />
		<path class="st1_checklist-1-68"
			d="M290.5,157.9H187.9c-11.3,0-20.4-9.2-20.4-20.4v-31c0-4.1,3.3-7.4,7.4-7.3h41c1.1-13.4,12.8-23.4,26.1-22.3&#10;&#9;&#9;c11.9,0.9,21.4,10.4,22.3,22.3h39.4c4.1,0,7.4,3.3,7.4,7.3v31C311,148.7,301.8,157.9,290.5,157.9&#10;&#9;&#9;C290.5,157.9,290.5,157.9,290.5,157.9z M174.8,102.8c-2,0-3.7,1.6-3.7,3.7v31c0,9.3,7.5,16.7,16.8,16.8h102.7&#10;&#9;&#9;c9.3,0,16.7-7.5,16.8-16.8v-31c0-2-1.7-3.7-3.7-3.7h-41.2c-1,0-1.8-0.8-1.8-1.8c0-11.4-9.2-20.6-20.6-20.6&#10;&#9;&#9;c-11.4,0-20.6,9.2-20.6,20.6c0,1-0.8,1.8-1.8,1.8l0,0L174.8,102.8z M240,111.9c-6,0-10.9-4.9-10.9-10.9c0-6,4.9-10.9,10.9-10.9&#10;&#9;&#9;c6,0,10.8,4.8,10.9,10.8C250.9,106.9,246.1,111.8,240,111.9C240,111.9,240,111.9,240,111.9z M240,93.8c-4,0-7.2,3.2-7.2,7.2&#10;&#9;&#9;c0,4,3.2,7.2,7.2,7.2c4,0,7.2-3.2,7.2-7.2l0,0C247.2,97,244,93.8,240,93.8z" />
	</g>
	<g id="check-mark-2_checklist-1-68">
		<polygon class="st4_checklist-1-68"
			points="158.8,269.2 185,295.2 224.4,257.6 214.9,248.1 185,276.6 168.3,260.2 &#9;" />
		<path class="st1_checklist-1-68"
			d="M185,297c-0.5,0-0.9-0.2-1.3-0.5l-26.2-25.9c-0.7-0.7-0.7-1.9,0-2.6c0,0,0,0,0,0l9.5-9.1&#10;&#9;&#9;c0.7-0.7,1.8-0.7,2.6,0L185,274l28.6-27.3c0.7-0.7,1.9-0.7,2.6,0l9.5,9.5c0.7,0.7,0.7,1.9,0,2.6c0,0,0,0,0,0l-39.4,37.6&#10;&#9;&#9;C186,296.8,185.5,297,185,297z M161.4,269.3l23.6,23.3l36.8-35l-6.9-6.9L186.2,278c-0.7,0.7-1.8,0.7-2.6,0l-15.4-15.2L161.4,269.3z&#10;&#9;&#9;" />
	</g>
	<g id="check-mark-1_checklist-1-68">
		<polygon class="st4_checklist-1-68"
			points="158.8,195.2 185,221.1 224.4,183.6 214.9,174.1 185,202.6 168.3,186.2 &#9;" />
		<path class="st1_checklist-1-68"
			d="M185,223c-0.5,0-0.9-0.2-1.3-0.5l-26.2-25.9c-0.4-0.3-0.5-0.8-0.5-1.3c0-0.5,0.2-1,0.6-1.3l9.5-9.1&#10;&#9;&#9;c0.7-0.7,1.8-0.7,2.6,0L185,200l28.6-27.3c0.7-0.7,1.9-0.7,2.6,0l9.5,9.5c0.7,0.7,0.7,1.9,0,2.6c0,0,0,0,0,0l-39.4,37.6&#10;&#9;&#9;C186,222.8,185.5,223,185,223z M161.4,195.3l23.6,23.3l36.8-35l-6.9-6.9l-28.6,27.2c-0.7,0.7-1.8,0.7-2.6,0l-15.4-15.2L161.4,195.3&#10;&#9;&#9;z" />
	</g>
	<g id="pen_checklist-1-68">
		<path class="st4_checklist-1-68"
			d="M297.2,305.8c-15.8,12.3-32.5,23.3-50,33.1c-17.5,9.6-30.1,14.3-36.9,16.4l-2.7-3.5c3.8-6,11.6-17,25.4-31.4&#10;&#9;&#9;c13.9-14.4,28.9-27.7,44.9-39.7c25.8-19.8,64.1-50.6,86.1-66.5c3.4-2.5,8.1-1.8,10.7,1.5l10.2,13.3c2.5,3.3,2,8.1-1.3,10.7&#10;&#9;&#9;C362.6,256.9,323,286,297.2,305.8z" />
		<path class="st1_checklist-1-68"
			d="M210.4,357.1c-0.6,0-1.1-0.3-1.4-0.7l-2.7-3.5c-0.5-0.6-0.5-1.4-0.1-2.1c4.2-6.6,12.1-17.5,25.6-31.6&#10;&#9;&#9;c14-14.4,29.1-27.8,45.1-39.9c9.3-7.1,20-15.5,31.3-24.4c20-15.7,40.7-31.9,54.9-42.1c4.2-3.1,10.1-2.2,13.2,1.9l10.2,13.4&#10;&#9;&#9;c3.2,4.1,2.5,10-1.6,13.3c-13.6,11-34.6,26.9-55,42.2c-11.5,8.6-22.3,16.8-31.6,23.9l0,0c-15.9,12.3-32.7,23.4-50.2,33.2&#10;&#9;&#9;c-17.1,9.4-29.7,14.2-37.2,16.5C210.7,357.1,210.5,357.1,210.4,357.1z M209.9,351.7l1.1,1.4c6.4-2.1,18.6-6.7,35.3-15.9&#10;&#9;&#9;c17.4-9.7,34-20.7,49.7-32.9l0,0c9.3-7.1,20.1-15.3,31.6-23.9c20.4-15.3,41.4-31.1,54.9-42.1c2.5-2,3-5.6,1-8.2l-10.2-13.3&#10;&#9;&#9;c-1.9-2.5-5.6-3.1-8.1-1.2c-14.1,10.2-34.8,26.4-54.7,42.1c-11.4,8.9-22.1,17.2-31.4,24.4c-15.9,12-30.8,25.3-44.7,39.5&#10;&#9;&#9;C221.2,335.4,213.6,346.1,209.9,351.7L209.9,351.7z" />
		<path class="st1_checklist-1-68"
			d="M364,214.2c0,0-8.2-5.1-17-2.1s-62.6,48.1-62.6,48.1s6.3,3.6,11.5,0.4s3.4-7.6,3.4-7.6s37-29.1,41.1-30.6&#10;&#9;&#9;s8.1,3.5,8.1,3.5L364,214.2z" />
		<path class="st1_checklist-1-68"
			d="M291,263.7c-2.6-0.1-5.2-0.7-7.5-2c-0.9-0.5-1.2-1.6-0.7-2.5c0.1-0.2,0.3-0.4,0.4-0.5&#10;&#9;&#9;c5.5-4.6,54.3-45.4,63.2-48.4c9.5-3.2,18.2,2,18.6,2.2c0.9,0.6,1.1,1.7,0.5,2.6c-0.1,0.2-0.2,0.3-0.4,0.4l-15.5,11.7&#10;&#9;&#9;c-0.8,0.6-1.9,0.4-2.5-0.3c0,0-3.2-3.9-6-2.9s-25.4,18.4-39.6,29.6c0.3,2.3-0.4,5.9-4.5,8.4C295.1,263.2,293.1,263.8,291,263.7z&#10;&#9;&#9; M288,259.6c2.3,0.8,4.9,0.5,7-0.6c3.6-2.2,2.8-5.1,2.7-5.4c-0.3-0.7,0-1.6,0.6-2.1c6.2-4.9,37.4-29.4,41.6-30.9&#10;&#9;&#9;c3.7-1.4,7.1,1.1,8.9,2.8l11.8-8.8c-4.1-1.7-8.7-2-12.9-0.7C340.9,216.1,304.3,246,288,259.6L288,259.6z" />
		<path class="st2_checklist-1-68"
			d="M247.2,338.9c-17.5,9.6-30.1,14.3-36.8,16.4l-2.7-3.5c3.8-6,11.6-17,25.4-31.4L247.2,338.9z" />
		<path class="st1_checklist-1-68"
			d="M210.4,357.1c-0.6,0-1.1-0.3-1.4-0.7l-2.7-3.5c-0.5-0.6-0.5-1.4-0.1-2.1c4.2-6.6,12.1-17.5,25.6-31.6&#10;&#9;&#9;c0.4-0.4,0.9-0.6,1.4-0.6c0.5,0,1,0.3,1.4,0.7l14.2,18.5c0.3,0.4,0.5,1,0.3,1.5c-0.1,0.5-0.4,1-0.9,1.2&#10;&#9;&#9;c-17.1,9.4-29.7,14.2-37.2,16.5C210.7,357.1,210.5,357.1,210.4,357.1z M209.9,351.7l1.1,1.4c6.2-2,17.7-6.4,33.4-14.8l-11.6-15&#10;&#9;&#9;C220.7,336.2,213.5,346.3,209.9,351.7L209.9,351.7z" />
		<path class="st1_checklist-1-68"
			d="M208,352.2l2.1,2.7l0,0l-5.9,4.5c-0.3,0.3-0.8,0.2-1.1-0.1l0,0l-1.1-1.5c-0.3-0.3-0.2-0.8,0.1-1.1l0,0&#10;&#9;&#9;L208,352.2L208,352.2z" />
		<path class="st1_checklist-1-68"
			d="M203.8,361.2c-0.1,0-0.3,0-0.4,0c-0.9-0.1-1.7-0.6-2.2-1.3l-0.3-0.4c-1.1-1.4-0.8-3.5,0.6-4.6l5.4-4.1&#10;&#9;&#9;c0.4-0.3,0.9-0.4,1.4-0.4c0.5,0.1,0.9,0.3,1.2,0.7l2.1,2.7c0.6,0.8,0.5,2-0.3,2.6l-5.4,4.1C205.3,360.9,204.6,361.2,203.8,361.2z" />
	</g>
</svg>